<?xml version="1.0" standalone="no"?>
<!DOCTYPE svg PUBLIC "-//W3C//DTD SVG 20010904//EN"
 "http://www.w3.org/TR/2001/REC-SVG-20010904/DTD/svg10.dtd">
<svg version="1.0" xmlns="http://www.w3.org/2000/svg"
 width="1261.000000pt" height="1280.000000pt" viewBox="0 0 1261.000000 1280.000000"
 preserveAspectRatio="xMidYMid meet">
<g transform="translate(0.000000,1280.000000) scale(0.100000,-0.100000)"
fill="#000000" stroke="none">
<path d="M6405 12786 c-37 -9 -45 -14 -32 -19 10 -4 29 -7 41 -7 12 0 31 -7
42 -15 10 -8 28 -15 39 -15 11 0 34 -7 50 -16 20 -11 61 -16 128 -17 99 -2 99
-2 123 28 13 17 24 33 24 36 0 3 -38 13 -84 22 -96 19 -256 20 -331 3z"/>
<path d="M5895 12720 c-4 -6 7 -10 25 -10 18 0 29 4 25 10 -3 6 -15 10 -25 10
-10 0 -22 -4 -25 -10z"/>
<path d="M7150 12720 c0 -5 9 -10 21 -10 11 0 17 5 14 10 -3 6 -13 10 -21 10
-8 0 -14 -4 -14 -10z"/>
<path d="M5418 12713 c-29 -4 -37 -18 -16 -25 23 -8 -3 -26 -49 -33 -52 -8
-174 -43 -185 -54 -4 -3 66 5 157 18 151 23 163 26 154 43 -6 12 -6 25 1 38
11 21 4 23 -62 13z"/>
<path d="M6110 12682 c0 -33 -35 -42 -157 -42 -96 0 -105 -2 -110 -20 -5 -18
-14 -20 -112 -20 -59 0 -111 -4 -117 -9 -12 -12 -165 -41 -213 -41 -20 1 -47
7 -61 15 -41 23 -86 17 -191 -25 -83 -33 -184 -64 -283 -85 -11 -2 -25 0 -31
5 -17 14 -121 -17 -357 -107 -188 -71 -209 -77 -288 -79 -67 -2 -101 -9 -163
-33 -43 -17 -86 -31 -96 -31 -9 0 -63 -31 -118 -70 -103 -71 -119 -78 -125
-59 -8 25 -264 -126 -471 -279 -80 -59 -86 -66 -70 -78 17 -13 15 -16 -19 -46
-184 -165 -203 -177 -239 -158 -37 20 -17 80 53 156 22 24 38 44 34 44 -4 0
-29 -11 -56 -25 -27 -14 -56 -25 -65 -25 -25 0 -17 33 17 75 l33 39 -33 -20
c-19 -10 -57 -41 -86 -69 -42 -40 -55 -58 -60 -90 -5 -34 -89 -274 -98 -280
-2 -1 -57 -46 -123 -101 -192 -158 -350 -299 -498 -443 -75 -74 -140 -132
-143 -128 -11 11 8 48 67 127 75 102 231 260 256 260 21 0 87 65 153 150 23
30 54 60 69 66 32 13 151 139 151 159 0 21 -5 19 -42 -13 -18 -16 -55 -37 -81
-47 -39 -15 -52 -26 -69 -59 -18 -37 -362 -385 -380 -386 -5 0 -8 4 -8 9 0 9
55 103 88 150 16 24 16 24 -6 12 -12 -6 -49 -53 -83 -104 -68 -101 -150 -206
-199 -252 -36 -33 -84 -104 -77 -112 3 -2 19 2 35 11 70 36 142 30 142 -13 0
-16 -159 -179 -206 -211 -27 -19 -154 -286 -154 -324 0 -24 -17 -46 -95 -119
-101 -95 -183 -194 -282 -342 -88 -131 -96 -150 -78 -169 21 -21 20 -26 -31
-102 -57 -86 -52 -81 -67 -60 -11 15 -21 2 -80 -112 -37 -71 -67 -132 -67
-136 0 -3 7 -6 15 -6 25 0 18 -29 -49 -196 -56 -138 -81 -218 -110 -345 -5
-22 -13 -27 -52 -33 -28 -3 -52 -2 -60 5 -15 13 -17 80 -3 203 5 49 8 91 6 93
-7 6 -93 -220 -151 -392 -44 -132 -56 -160 -72 -160 -17 0 -20 -10 -26 -87
-10 -133 -46 -309 -70 -342 -13 -18 -27 -65 -37 -130 -19 -112 -26 -130 -47
-122 -11 4 -14 -9 -14 -66 0 -86 -17 -193 -33 -207 -7 -5 -23 -11 -37 -13 -20
-2 -26 -11 -33 -48 -17 -85 -13 -308 7 -415 22 -121 16 -258 -14 -335 -17 -42
-20 -79 -22 -241 -3 -183 -2 -191 18 -207 17 -14 25 -41 39 -132 10 -63 26
-140 35 -170 l18 -55 1 58 c1 45 -4 65 -19 84 -12 15 -20 41 -20 62 0 20 -5
91 -11 157 -12 119 -7 177 11 144 4 -8 11 -38 15 -65 11 -84 21 -81 24 7 5
237 0 391 -14 402 -23 18 -34 117 -41 361 -6 197 -4 235 9 268 20 46 37 48 37
4 0 -53 13 -53 30 0 8 26 19 47 24 46 5 -1 25 -53 45 -115 l36 -113 -1 -200
c-1 -117 -6 -217 -13 -241 -8 -31 -8 -68 0 -145 6 -57 12 -158 13 -224 1 -110
3 -122 24 -143 14 -14 22 -34 22 -54 0 -18 7 -75 15 -127 14 -81 14 -96 1
-110 -8 -9 -21 -33 -29 -53 -11 -26 -22 -38 -36 -38 -15 0 -18 -5 -14 -21 4
-15 -1 -27 -16 -38 -22 -16 -22 -18 -10 -136 9 -99 15 -125 34 -146 18 -23 23
-44 29 -135 3 -60 17 -156 30 -214 13 -58 22 -107 21 -109 -9 -9 -28 16 -65
82 -75 138 -75 116 -1 -76 6 -16 11 -54 11 -85 0 -54 2 -59 46 -102 26 -25 67
-72 92 -105 38 -51 44 -56 38 -30 -4 17 -27 70 -51 118 -25 49 -45 95 -45 103
0 30 19 11 60 -58 24 -40 81 -129 127 -197 47 -69 95 -148 108 -176 21 -48 85
-263 85 -285 0 -6 -11 -10 -25 -10 -29 0 -56 38 -75 106 -13 46 -30 50 -30 8
0 -37 -21 -25 -37 21 -7 22 -22 48 -32 60 -10 11 -41 63 -69 115 -80 149 -92
159 -72 60 5 -28 5 -49 -2 -57 -13 -17 29 -91 51 -89 18 1 121 -194 121 -231
0 -25 -10 -29 -27 -12 -6 6 -16 10 -22 8 -19 -7 17 -47 59 -69 21 -11 42 -30
45 -42 4 -13 22 -45 40 -73 18 -27 52 -83 74 -122 43 -75 58 -92 41 -47 -12
32 -13 77 -1 72 5 -1 40 -51 79 -109 39 -58 117 -155 174 -215 57 -60 114
-127 128 -149 13 -22 50 -80 83 -130 44 -68 56 -96 52 -114 -4 -17 4 -39 31
-80 57 -86 104 -140 306 -349 123 -128 194 -209 208 -240 12 -25 39 -71 59
-102 20 -30 43 -68 51 -84 20 -39 127 -126 230 -187 47 -28 95 -64 106 -80 52
-73 161 -173 218 -200 33 -16 87 -50 120 -77 34 -27 90 -70 126 -97 36 -27 90
-72 121 -101 31 -29 69 -56 85 -59 55 -12 103 -38 134 -72 32 -34 104 -84 170
-118 l35 -18 -24 27 c-14 14 -22 29 -18 32 17 18 284 -121 294 -153 2 -6 -6
-13 -18 -15 -19 -2 -12 -10 39 -46 34 -24 62 -47 62 -51 0 -11 159 -83 267
-121 111 -39 278 -81 458 -115 77 -15 213 -49 303 -76 264 -80 508 -137 727
-170 44 -7 155 -12 246 -11 165 2 166 2 189 -23 14 -15 35 -25 51 -25 37 0 46
-17 16 -31 -21 -10 -154 3 -294 27 -26 5 -33 3 -33 -9 0 -18 7 -20 195 -42
162 -19 376 -36 386 -29 22 13 169 3 234 -18 51 -15 104 -22 195 -25 196 -7
512 29 532 59 12 19 10 28 -7 28 -29 0 -14 19 23 29 65 18 233 51 258 51 13 0
39 -9 59 -20 33 -18 39 -19 91 -5 42 11 60 12 73 3 20 -12 142 6 431 63 166
33 169 34 530 234 135 75 288 152 340 171 52 20 187 80 299 135 112 54 213 99
225 99 12 0 104 52 205 115 215 136 232 145 267 145 18 0 56 24 121 77 51 42
96 80 99 84 2 4 -10 4 -28 -2 -48 -13 -71 -12 -61 5 6 11 139 124 296 252 9 7
17 22 17 33 0 21 57 76 90 86 25 8 55 40 165 175 97 119 165 190 182 190 17 0
16 -5 -3 -42 -9 -17 -17 -44 -18 -59 -1 -20 -36 -64 -127 -161 -146 -156 -159
-171 -137 -163 29 11 299 318 414 470 33 44 85 116 114 160 29 44 79 105 110
136 31 31 83 96 115 145 105 160 184 260 231 289 38 24 60 53 126 164 92 154
190 353 239 486 24 64 47 106 80 145 48 56 123 196 113 212 -3 4 -11 8 -19 8
-7 0 -15 7 -19 15 -9 23 40 168 79 233 33 55 185 423 185 448 0 7 -7 15 -16
18 -13 5 -14 15 -9 49 11 65 86 290 101 302 30 22 94 532 94 747 0 89 -3 108
-15 108 -12 0 -15 -14 -15 -64 0 -67 -6 -96 -21 -96 -8 0 -12 16 -25 115 -6
47 -7 48 -16 23 -5 -16 -16 -28 -23 -28 -14 0 -15 6 -42 235 -16 131 -18 142
-22 90 -2 -33 3 -156 9 -272 7 -117 10 -251 6 -297 -9 -125 -33 -228 -56 -248
-11 -9 -20 -27 -20 -40 0 -53 -44 -349 -62 -421 -21 -80 -40 -99 -57 -54 -11
28 -11 30 -60 -168 -94 -375 -187 -645 -316 -912 -84 -174 -194 -367 -243
-424 -14 -17 -36 -53 -47 -78 -42 -90 -179 -272 -354 -470 -51 -57 -99 -115
-108 -127 -8 -13 -21 -24 -29 -24 -16 0 -75 -72 -217 -266 -129 -175 -246
-299 -274 -290 -25 8 -119 -60 -243 -177 -165 -156 -403 -339 -680 -523 -222
-148 -307 -197 -327 -186 -21 13 -50 2 -233 -86 -166 -79 -200 -92 -247 -92
-33 0 -148 -42 -168 -61 -6 -7 5 -8 33 -3 34 5 42 4 42 -9 0 -9 -30 -27 -82
-48 -99 -39 -215 -95 -245 -119 -15 -11 -50 -20 -102 -24 -72 -7 -83 -10 -115
-41 -40 -38 -111 -65 -169 -65 -29 0 -46 -6 -62 -24 -24 -25 -80 -46 -127 -46
-38 0 -35 12 10 49 44 36 27 41 -48 11 -106 -42 -137 -13 -42 38 l57 31 -36 1
c-20 0 -130 -31 -245 -69 -226 -75 -317 -96 -463 -110 -130 -12 -169 2 -98 34
l32 15 -50 -4 c-27 -2 -104 -14 -170 -25 -102 -18 -143 -21 -270 -16 -82 4
-199 15 -260 26 -66 12 -196 24 -325 29 -124 6 -241 16 -277 25 -67 16 -270
113 -292 139 -7 9 -49 27 -93 41 -93 29 -88 29 -88 11 0 -24 -47 -26 -215 -13
-124 11 -169 18 -201 35 -37 19 -100 78 -120 115 -5 8 -54 32 -109 52 -55 20
-215 92 -355 160 -261 126 -299 141 -430 170 -89 20 -216 80 -285 135 -139
112 -208 160 -219 152 -20 -15 -95 -6 -117 14 -35 31 -79 106 -79 135 0 22 -8
31 -43 48 -29 14 -110 88 -231 211 -158 160 -192 190 -217 190 -45 0 -151 112
-227 238 -34 57 -62 109 -62 116 0 7 -33 43 -72 81 -208 195 -396 386 -428
435 -35 55 -144 269 -155 303 -3 13 -11 17 -25 12 -24 -8 -71 19 -114 64 -21
21 -33 28 -41 21 -18 -15 -39 14 -93 130 -112 241 -184 421 -178 445 4 17 -10
65 -48 157 -63 155 -86 228 -86 276 0 31 2 33 17 21 19 -16 93 -170 177 -368
63 -147 135 -295 141 -289 2 2 -34 98 -81 213 -109 270 -228 615 -215 628 6 6
31 -4 68 -26 32 -19 125 -71 206 -115 161 -88 162 -88 109 11 -34 64 -46 72
-106 72 l-51 0 -35 70 c-25 52 -35 85 -36 127 -1 39 -9 69 -23 90 -11 18 -28
47 -37 65 -9 17 -24 33 -33 36 -9 2 -21 24 -29 51 -6 26 -30 75 -52 109 -43
69 -67 149 -72 242 -3 55 -1 60 19 63 13 2 27 -5 36 -18 15 -21 15 -21 22 9
15 67 28 38 65 -149 18 -89 26 -110 52 -137 18 -18 33 -31 36 -29 2 2 -3 24
-11 48 -11 32 -13 76 -9 175 4 127 -8 223 -28 223 -14 0 -32 -30 -39 -62 -4
-17 -12 -33 -18 -35 -13 -5 -18 12 -28 89 -6 46 -6 47 -38 41 -29 -4 -35 -1
-46 24 -17 37 -27 133 -14 133 6 0 10 85 9 233 -1 181 3 254 17 332 10 54 20
101 23 104 3 4 12 -3 20 -13 16 -23 26 -17 25 16 -3 87 -15 185 -23 195 -16
20 -21 229 -9 363 12 138 48 355 63 383 5 10 13 15 17 12 12 -7 21 19 21 58 0
53 31 146 51 152 10 3 29 30 42 59 21 44 25 72 29 192 5 136 6 142 52 261 30
80 46 138 46 167 0 25 10 75 21 110 24 72 164 338 198 374 28 30 57 90 121
246 29 70 62 137 74 147 19 18 50 98 41 107 -12 12 -145 -191 -202 -307 -37
-77 -69 -129 -74 -124 -11 11 19 138 73 311 35 111 48 140 85 183 34 40 43 58
43 88 0 67 27 136 64 165 52 39 120 150 166 269 61 156 180 314 180 237 0 -25
-30 -87 -122 -246 -49 -87 -70 -133 -72 -163 -3 -39 -2 -40 14 -26 9 8 22 15
29 15 7 0 22 21 33 48 22 50 88 141 132 181 20 19 29 22 38 13 20 -20 35 -14
89 34 28 25 53 43 56 40 3 -3 -6 -25 -21 -50 -14 -24 -26 -48 -26 -52 0 -27
75 87 134 204 l27 53 -24 -16 c-22 -14 -26 -14 -40 0 -9 8 -22 15 -31 15 -33
0 -26 24 22 68 28 26 66 73 86 105 30 50 44 63 96 88 34 16 123 69 198 118
189 122 238 146 268 130 28 -15 22 -19 219 137 227 179 386 297 510 380 111
73 151 90 138 58 -8 -21 16 -14 115 34 61 29 88 51 162 131 l89 96 83 24 c46
13 128 36 183 51 80 22 122 40 210 95 146 90 254 139 365 164 33 7 47 4 92
-17 79 -39 148 -36 241 11 58 29 105 42 247 68 96 18 220 34 274 35 100 4 140
16 92 28 -30 7 -34 22 -8 30 42 12 88 18 126 18 22 -1 72 6 111 14 193 41 363
66 485 71 102 4 138 9 147 20 17 21 156 40 189 25 28 -13 84 -16 84 -4 0 4
-63 19 -139 34 -77 16 -151 32 -165 38 -28 10 -34 25 -13 32 17 6 560 -17 862
-37 175 -11 270 -22 315 -35 36 -10 128 -33 205 -50 161 -37 205 -53 205 -74
0 -11 31 -25 103 -46 56 -17 128 -40 160 -51 32 -11 77 -22 99 -25 92 -9 173
-51 166 -85 -2 -8 50 -41 137 -85 77 -40 141 -78 144 -85 3 -9 -10 -11 -52 -6
-47 5 -56 3 -60 -13 -3 -12 5 -22 29 -34 39 -18 44 -40 12 -57 -64 -34 -301
37 -282 85 3 8 -10 17 -38 25 -24 7 -68 28 -99 47 -37 22 -83 39 -132 48 -85
17 -151 47 -167 76 -12 23 -6 40 16 40 8 0 14 9 14 20 0 18 -7 20 -60 20 -75
0 -130 21 -130 49 0 26 -26 39 -180 89 -148 48 -265 78 -337 88 -44 5 -53 4
-53 -9 0 -9 13 -17 34 -21 44 -8 88 -42 66 -50 -8 -3 -71 3 -140 13 -106 15
-127 16 -141 4 -19 -16 -363 -23 -489 -10 l-75 7 44 -22 c24 -13 43 -27 43
-33 0 -5 -17 -14 -36 -19 -30 -8 -44 -5 -93 20 -53 27 -67 29 -163 29 -132 0
-180 -9 -180 -35 0 -10 -4 -22 -10 -25 -31 -19 1 -25 128 -23 75 2 265 -1 422
-6 217 -7 294 -6 322 3 31 10 59 8 190 -14 278 -49 552 -118 722 -184 43 -17
83 -28 88 -25 11 7 196 -92 229 -123 15 -14 49 -39 75 -57 76 -49 65 -70 -28
-51 -30 6 -38 4 -38 -7 0 -9 27 -23 70 -37 39 -12 99 -42 134 -66 44 -30 88
-49 145 -64 44 -12 121 -38 169 -59 90 -39 232 -126 232 -142 0 -5 27 -28 60
-50 33 -22 60 -45 60 -50 0 -13 83 -60 106 -60 29 0 123 -47 161 -80 29 -26
42 -30 91 -30 68 0 114 -20 197 -83 87 -65 195 -167 195 -182 0 -25 -15 -24
-82 5 l-67 28 127 -123 c229 -220 239 -228 322 -254 66 -21 84 -32 145 -92 39
-37 84 -86 100 -109 17 -23 49 -64 73 -92 25 -29 41 -56 38 -65 -5 -13 22 -42
90 -96 21 -16 28 -17 34 -6 13 21 42 -11 86 -94 20 -40 45 -84 56 -99 23 -33
23 -46 -1 -50 -18 -3 -14 -12 32 -88 46 -76 52 -82 55 -57 4 32 1 31 40 12 45
-23 222 -308 222 -358 0 -7 20 -45 44 -83 24 -38 76 -124 115 -191 40 -68 74
-123 77 -123 2 0 0 9 -6 19 -12 24 -13 61 -1 61 5 0 11 14 15 31 5 25 0 38
-28 72 -40 51 -148 273 -148 307 0 14 -15 43 -33 65 -18 22 -83 117 -145 210
-62 94 -139 204 -171 245 -80 105 -144 229 -130 252 6 9 8 23 6 31 -8 21 -122
117 -138 117 -8 0 -64 52 -125 115 -60 63 -113 115 -117 115 -9 0 -135 112
-201 178 -41 41 -56 72 -34 72 19 0 212 -153 278 -221 37 -38 73 -69 81 -69
22 0 166 -127 313 -276 181 -184 233 -246 304 -362 32 -53 82 -130 109 -172
28 -41 54 -83 58 -93 15 -40 170 -255 186 -260 18 -4 97 -117 127 -181 12 -25
25 -35 45 -38 16 -3 29 -4 29 -3 0 1 -11 35 -25 76 -25 71 -48 215 -37 232 2
5 15 7 28 4 13 -2 24 -1 24 2 0 12 -33 56 -85 111 -66 72 -105 123 -105 141 0
8 -14 31 -30 51 -32 38 -100 178 -100 204 0 7 7 14 15 14 14 0 14 4 -1 33 -42
83 -168 306 -171 303 -2 -2 4 -20 13 -40 28 -57 8 -54 -54 7 -32 31 -63 57
-69 57 -7 0 -33 27 -58 60 -25 33 -50 60 -55 60 -5 0 -26 23 -47 51 -31 42
-164 197 -253 297 -13 15 -27 21 -39 17 -37 -11 -161 108 -161 156 0 10 11 26
25 35 24 16 26 15 87 -30 43 -32 71 -46 94 -46 22 0 47 -12 82 -40 28 -21 53
-44 57 -50 9 -15 25 -12 25 4 0 15 -65 103 -134 181 -36 40 -47 48 -57 38 -7
-7 -22 -13 -32 -13 -17 0 -18 -5 -13 -35 4 -19 3 -35 -2 -35 -4 0 -33 18 -63
41 -30 22 -94 61 -144 86 -123 62 -168 94 -255 184 -54 56 -91 84 -133 103
-36 16 -83 49 -123 88 -55 53 -63 64 -50 74 13 9 9 13 -22 28 -115 54 -222
137 -222 172 0 24 24 16 109 -36 128 -78 130 -79 98 -41 -15 18 -27 41 -27 51
0 10 -16 30 -35 44 -34 26 -47 56 -24 56 8 0 7 5 -2 16 -9 11 -23 14 -47 10
-59 -9 -198 72 -367 215 -118 99 -180 139 -255 164 -30 10 -120 45 -200 77
-405 166 -659 267 -697 278 -32 10 -44 20 -52 41 -10 29 -11 29 -93 29 -46 0
-114 3 -153 6 -68 5 -69 5 -42 -11 29 -17 36 -35 13 -35 -29 0 -282 40 -317
50 -23 6 -46 7 -60 1 -13 -4 -37 -7 -54 -5 -16 2 -102 11 -190 20 -88 9 -170
23 -181 30 -14 8 -25 9 -31 3 -6 -6 -25 -6 -54 1 -24 5 -105 13 -179 16 -74 3
-155 10 -180 16 -25 6 -97 16 -160 22 l-115 11 3 34 2 33 -127 -4 c-105 -3
-137 -8 -178 -27 -65 -29 -125 -22 -125 15 0 20 9 26 63 42 l62 19 -87 -1
c-85 -1 -88 -2 -88 -24z m345 -282 c19 -7 19 -8 -5 -18 -14 -5 -40 -13 -57
-17 -23 -5 -33 -12 -33 -26 0 -10 -1 -19 -2 -19 -2 0 -41 -7 -88 -15 -47 -8
-144 -15 -217 -15 -110 0 -133 3 -141 16 -7 13 -17 14 -73 4 -135 -24 -240
-52 -272 -74 -42 -29 -94 -37 -179 -29 -52 4 -67 10 -71 24 -4 15 -10 16 -48
8 -52 -12 -412 -119 -419 -125 -2 -3 39 -2 92 2 57 4 97 3 101 -3 8 -12 -104
-110 -153 -134 -21 -10 -57 -21 -81 -24 -24 -4 -86 -16 -138 -28 -90 -21 -93
-21 -107 -3 -10 14 -20 17 -41 11 -15 -4 -22 -10 -15 -12 38 -14 -22 -55 -179
-122 -63 -27 -184 -81 -271 -119 -142 -64 -246 -103 -353 -131 -67 -18 -105
-47 -105 -80 0 -41 -56 -88 -179 -151 -56 -28 -101 -55 -101 -59 0 -3 -18 -28
-40 -55 -53 -64 -53 -82 0 -55 24 13 47 18 60 14 16 -5 33 4 73 42 57 54 107
79 134 68 17 -6 16 -8 -4 -23 -12 -9 -39 -27 -60 -40 -21 -13 -48 -37 -58 -53
-11 -16 -43 -45 -71 -64 -28 -18 -57 -41 -65 -51 -18 -22 -239 -198 -268 -214
-27 -14 -51 -7 -51 15 0 8 -4 15 -10 15 -5 0 -10 14 -10 30 0 17 -3 30 -6 30
-11 0 -108 -61 -131 -83 -13 -11 -35 -21 -50 -22 -17 0 -60 -24 -107 -58 -74
-54 -106 -68 -106 -48 0 30 195 175 317 237 35 17 72 39 81 47 9 8 58 42 109
76 80 53 123 94 111 106 -2 2 -38 -24 -82 -57 -43 -32 -85 -57 -92 -54 -7 3
-36 -16 -64 -41 -28 -25 -53 -43 -57 -40 -8 9 41 88 94 153 24 31 43 58 40 60
-13 14 -177 -124 -332 -281 -99 -99 -202 -199 -230 -220 -27 -22 -116 -103
-196 -180 -172 -167 -281 -256 -381 -312 -146 -83 -162 -66 -65 67 50 68 69
86 93 90 35 6 87 62 309 335 138 169 328 367 409 425 27 19 74 61 104 93 68
71 113 99 161 102 29 2 58 18 127 70 172 131 352 234 649 370 105 48 199 97
211 109 28 31 140 106 157 106 7 0 17 -3 21 -7 4 -4 33 -8 64 -8 51 0 57 -2
60 -22 3 -18 -8 -28 -65 -57 -95 -49 -47 -46 54 3 45 22 87 49 93 61 17 31
290 207 365 236 81 30 238 74 265 74 12 0 52 13 90 29 66 28 69 29 112 14 58
-20 117 -14 324 36 188 45 354 74 375 66 8 -2 37 -1 64 4 64 11 584 12 610 1z
m-4969 -2945 c-31 -69 -65 -157 -75 -195 -26 -92 -49 -143 -110 -237 -28 -44
-51 -90 -51 -102 0 -12 -25 -83 -56 -158 -31 -75 -65 -172 -76 -215 -27 -109
-60 -179 -123 -265 -56 -77 -76 -130 -55 -143 18 -11 8 -66 -61 -340 -57 -225
-80 -285 -95 -247 -3 9 -1 31 5 48 15 43 14 54 -3 40 -22 -18 -29 2 -21 60 5
33 3 54 -5 64 -21 26 -14 134 13 206 44 114 69 158 91 161 29 4 36 48 8 48
-46 0 -44 20 17 201 32 96 69 197 84 224 38 75 85 135 105 135 14 0 26 19 47
70 30 73 29 86 -3 76 -18 -6 -42 -50 -57 -103 -8 -28 -45 -32 -45 -5 0 22 36
99 93 198 30 52 44 87 41 100 -7 28 58 212 107 301 45 81 67 100 100 83 15 -9
24 -8 35 0 7 7 21 10 29 6 11 -4 23 10 41 47 33 65 55 90 67 78 5 -5 -13 -59
-47 -136z m-766 -1904 c11 -21 -1 -106 -18 -123 -21 -21 -33 3 -27 50 13 97
23 114 45 73z m-175 -141 c3 -5 17 -101 31 -212 13 -112 32 -243 41 -293 23
-130 9 -505 -20 -505 -7 0 -8 58 -4 173 5 181 0 307 -14 307 -11 0 -52 -133
-83 -273 -15 -65 -32 -130 -38 -145 l-12 -27 -4 35 c-6 57 17 402 39 570 11
85 20 162 20 170 -4 82 5 184 16 203 6 10 21 9 28 -3z m109 -1297 c7 -16 21
-62 30 -103 10 -41 30 -114 46 -161 36 -105 52 -259 28 -259 -17 0 -28 20 -28
51 0 11 -15 50 -34 87 -19 37 -38 79 -41 93 -4 16 -13 26 -23 25 -9 0 -19 10
-23 24 -9 31 -11 233 -3 254 9 25 32 19 48 -11z m-394 -651 c0 -40 -25 -19
-28 24 -2 37 -1 38 13 20 8 -11 15 -31 15 -44z m551 -632 c23 -13 26 -62 4
-80 -12 -10 -16 -8 -25 15 -11 28 -14 75 -4 75 3 0 14 -5 25 -10z"/>
<path d="M3680 11630 c-41 -16 -85 -29 -97 -29 -34 -1 -214 -103 -223 -126 -4
-12 -24 -33 -44 -49 -20 -15 -36 -31 -36 -37 0 -27 65 4 240 116 36 23 104 65
153 94 48 29 87 54 87 57 0 5 7 7 -80 -26z"/>
<path d="M3138 11349 c-18 -10 -25 -39 -10 -39 13 0 52 30 52 41 0 12 -20 11
-42 -2z"/>
<path d="M1195 9108 c-24 -29 -25 -32 -9 -41 21 -12 44 14 44 50 0 30 -3 29
-35 -9z"/>
<path d="M4995 12644 c-133 -23 -407 -82 -488 -104 -33 -10 -36 -14 -31 -35 5
-22 0 -28 -47 -50 -68 -31 -79 -31 -79 0 0 23 -3 25 -27 19 -30 -7 -74 -32
-110 -63 -30 -25 -29 -28 6 -23 16 2 31 -1 35 -6 11 -18 164 35 311 108 172
86 287 120 410 124 69 2 105 9 155 29 84 33 54 34 -135 1z"/>
<path d="M7050 12589 c43 -7 416 -11 395 -4 -5 2 -107 5 -225 7 -118 3 -195 1
-170 -3z"/>
<path d="M3475 12094 c-55 -29 -109 -53 -119 -54 -22 0 -217 -101 -313 -162
-93 -59 -85 -60 27 -5 50 24 56 25 67 11 17 -24 52 -8 198 92 134 90 176 115
219 123 17 4 32 15 37 29 12 31 0 28 -116 -34z"/>
<path d="M10145 11495 c17 -14 44 -33 60 -42 29 -15 30 -15 13 4 -10 10 -37
29 -60 42 l-43 22 30 -26z"/>
<path d="M10211 11337 c2 -2 38 -25 79 -52 45 -28 67 -38 55 -25 -20 23 -112
80 -129 80 -5 0 -7 -2 -5 -3z"/>
<path d="M10410 11276 c0 -7 26 -33 58 -57 31 -24 113 -93 182 -153 125 -110
124 -91 -2 30 -64 61 -223 194 -233 194 -3 0 -5 -6 -5 -14z"/>
<path d="M1756 10816 c-36 -41 -66 -77 -66 -80 0 -11 36 7 63 33 31 28 82 109
75 117 -3 2 -35 -29 -72 -70z"/>
<path d="M1590 10495 c-17 -18 -21 -28 -13 -36 8 -8 16 -3 28 21 21 41 15 47
-15 15z"/>
<path d="M11135 10510 c3 -5 11 -10 16 -10 6 0 7 5 4 10 -3 6 -11 10 -16 10
-6 0 -7 -4 -4 -10z"/>
<path d="M11180 10501 c0 -9 34 -21 60 -21 11 1 10 4 -4 15 -22 16 -56 20 -56
6z"/>
<path d="M1548 10389 c-16 -22 -28 -47 -28 -58 0 -28 -74 -124 -120 -156 -47
-33 -70 -65 -46 -65 20 0 13 -18 -44 -110 -57 -91 -93 -160 -87 -167 3 -2 22
24 43 59 69 115 125 189 142 186 11 -2 40 35 94 122 78 126 98 176 82 210 -8
16 -12 14 -36 -21z"/>
<path d="M2452 10417 c-10 -11 -9 -17 3 -27 13 -11 19 -10 33 3 15 16 15 17 0
17 -9 0 -18 5 -20 11 -2 7 -8 6 -16 -4z"/>
<path d="M1425 10328 c-65 -72 -111 -136 -102 -144 3 -3 10 -3 15 0 18 11 163
206 153 206 -5 0 -35 -28 -66 -62z"/>
<path d="M11395 10283 c46 -83 54 -93 47 -56 -4 26 -67 123 -79 123 -2 0 12
-30 32 -67z"/>
<path d="M1164 10077 c-89 -93 -111 -124 -221 -313 -115 -198 -253 -453 -253
-467 0 -4 7 -7 16 -7 12 0 15 -6 11 -22 -44 -204 -60 -298 -49 -298 19 0 45
80 58 177 15 119 33 164 98 253 31 42 43 66 35 70 -13 9 9 55 57 118 18 24 31
49 28 56 -7 18 193 301 255 360 17 17 31 38 31 48 0 10 9 41 20 70 11 28 18
53 16 55 -1 2 -47 -43 -102 -100z"/>
<path d="M2051 9823 c-41 -48 -49 -63 -32 -63 4 0 25 25 45 55 20 30 34 55 32
55 -2 0 -23 -21 -45 -47z"/>
<path d="M1096 9801 c-4 -7 -5 -15 -2 -18 9 -9 19 4 14 18 -4 11 -6 11 -12 0z"/>
<path d="M1896 9677 c-52 -89 -98 -179 -94 -183 5 -5 85 112 112 163 29 58 14
76 -18 20z"/>
<path d="M1755 9650 c-9 -17 -14 -37 -12 -43 3 -7 12 5 21 27 21 47 14 60 -9
16z"/>
<path d="M645 9204 c-15 -33 -43 -97 -62 -144 -19 -47 -42 -89 -50 -94 -22
-12 -94 -172 -141 -311 -42 -125 -66 -251 -60 -320 l3 -40 14 60 c7 33 17 85
21 115 6 53 88 261 129 332 12 19 29 59 40 89 10 30 41 104 69 164 50 110 78
192 68 202 -3 3 -17 -21 -31 -53z"/>
<path d="M11865 8920 c10 -11 20 -20 22 -20 2 0 -1 9 -7 20 -6 11 -16 20 -22
20 -6 0 -3 -9 7 -20z"/>
<path d="M12225 8731 c58 -147 84 -237 83 -281 -1 -39 66 -233 82 -238 14 -5
13 0 -16 74 -18 43 -23 69 -17 75 15 15 38 -12 59 -68 18 -51 54 -99 54 -73 0
25 -131 342 -190 460 -85 169 -110 192 -55 51z"/>
<path d="M12040 8819 c0 -17 41 -139 49 -143 15 -10 -8 86 -29 118 -11 17 -20
28 -20 25z"/>
<path d="M11803 8744 c26 -83 116 -326 116 -316 1 24 -100 321 -111 328 -7 5
-9 1 -5 -12z"/>
<path d="M12230 8453 c0 -4 5 -15 10 -23 8 -13 10 -13 10 2 0 9 -4 20 -10 23
-5 3 -10 3 -10 -2z"/>
<path d="M11830 8362 c0 -9 65 -136 130 -252 l41 -75 -6 49 c-9 64 -11 70 -38
81 -14 7 -39 45 -69 108 -43 88 -58 111 -58 89z"/>
<path d="M12264 8188 c3 -9 10 -36 16 -60 7 -23 24 -67 40 -98 28 -57 75 -263
86 -380 10 -97 34 -135 71 -112 10 6 10 21 1 70 -11 60 -7 85 11 66 5 -5 26
-49 46 -99 20 -49 42 -94 47 -100 17 -16 1 164 -25 289 -25 123 -47 151 -47
62 0 -31 -4 -56 -10 -56 -5 0 -28 27 -50 60 -35 51 -44 77 -65 180 -22 106
-49 179 -62 166 -3 -3 0 -21 7 -41 23 -71 -11 -57 -47 19 -13 28 -22 43 -19
34z"/>
<path d="M145 7620 c-3 -11 -2 -28 4 -37 9 -16 10 -16 11 4 0 12 3 28 6 37 3
9 1 16 -4 16 -6 0 -13 -9 -17 -20z"/>
<path d="M12477 7269 c-7 -54 23 -179 50 -206 28 -28 39 -115 18 -155 -26 -54
-18 -100 20 -112 20 -6 20 -1 19 174 -1 210 -10 253 -64 305 l-37 36 -6 -42z"/>
<path d="M981 7274 c0 -11 3 -14 6 -6 3 7 2 16 -1 19 -3 4 -6 -2 -5 -13z"/>
<path d="M913 5973 c-10 -36 -9 -172 1 -198 7 -18 9 -16 20 15 10 29 10 38 -2
52 -11 14 -14 34 -9 88 6 74 3 88 -10 43z"/>
<path d="M12271 4784 c0 -11 3 -14 6 -6 3 7 2 16 -1 19 -3 4 -6 -2 -5 -13z"/>
<path d="M1340 4505 c0 -3 11 -28 25 -55 17 -34 23 -58 19 -78 -9 -44 45 -163
131 -288 43 -61 81 -130 90 -158 19 -66 91 -189 148 -251 l44 -49 -5 33 c-2
19 -24 67 -48 108 -67 113 -99 178 -219 447 -101 227 -114 252 -148 273 -20
13 -37 21 -37 18z"/>
<path d="M1475 3995 c17 -76 22 -132 14 -153 -11 -29 11 -69 65 -121 33 -32
37 -33 65 -22 16 7 39 10 51 6 l22 -7 -18 32 c-11 18 -26 35 -35 37 -8 2 -42
51 -75 109 -32 57 -67 114 -77 126 l-19 23 7 -30z"/>
<path d="M1170 3854 c0 -6 7 -19 15 -30 8 -10 14 -14 14 -9 0 6 -6 19 -14 29
-8 11 -15 15 -15 10z"/>
<path d="M1257 3758 c-17 -17 -15 -21 28 -87 85 -130 107 -123 38 11 -46 91
-49 94 -66 76z"/>
<path d="M1789 3600 c-15 -16 -13 -25 40 -121 54 -99 58 -104 105 -122 27 -9
50 -16 52 -15 3 4 -162 258 -174 269 -4 3 -14 -2 -23 -11z"/>
<path d="M1525 3511 c-4 -14 15 -50 65 -124 79 -117 104 -170 97 -201 -4 -17
8 -31 57 -68 103 -78 102 -63 -2 92 -44 63 -105 159 -137 213 -32 54 -61 100
-66 102 -4 3 -10 -3 -14 -14z"/>
<path d="M741 3440 c0 -25 73 -183 87 -188 19 -6 15 7 -38 108 -27 52 -49 88
-49 80z"/>
<path d="M916 3348 c17 -29 85 -128 88 -128 13 0 -36 104 -56 120 -30 23 -43
26 -32 8z"/>
<path d="M2001 3287 c-12 -23 -11 -28 14 -61 15 -20 31 -36 35 -36 14 0 130
-160 144 -198 7 -20 17 -45 21 -54 5 -13 2 -18 -11 -18 -14 0 -7 -11 26 -46
50 -51 98 -80 110 -67 9 9 13 28 11 59 -1 24 -98 158 -211 291 -41 49 -86 104
-100 122 l-25 33 -14 -25z m287 -387 c35 -22 45 -60 14 -60 -23 0 -76 55 -68
69 10 15 16 14 54 -9z"/>
<path d="M990 3038 c0 -40 81 -222 119 -268 l20 -25 1 23 c0 44 30 20 132
-103 106 -129 173 -248 163 -291 -10 -45 152 -186 354 -308 8 -5 7 1 -5 19
-11 16 -14 29 -7 33 36 25 5 85 -61 116 -25 12 -62 56 -143 174 -61 86 -130
190 -154 229 -24 40 -49 73 -55 73 -20 0 -114 91 -149 142 -19 29 -35 44 -37
36 -7 -21 -32 5 -84 89 -34 54 -50 71 -58 63 -9 -6 -16 -6 -24 2 -9 9 -12 8
-12 -4z"/>
<path d="M2293 2666 c7 -31 18 -48 38 -60 73 -43 121 -112 72 -104 -27 5 -25
-16 8 -65 91 -137 498 -373 988 -571 155 -63 242 -104 255 -120 30 -34 119
-92 281 -180 76 -41 144 -77 149 -79 5 -2 6 -9 2 -15 -5 -8 -22 -10 -49 -7
l-42 6 45 -25 c45 -24 45 -24 76 -5 43 26 58 24 143 -21 72 -38 105 -44 80
-13 -7 8 -34 25 -60 39 -51 25 -65 39 -50 48 24 15 -4 45 -62 66 -118 43 -323
154 -408 221 -20 16 -44 29 -53 29 -39 0 -166 95 -166 125 0 7 -26 28 -57 48
-32 19 -119 86 -193 147 -197 163 -213 174 -410 265 -182 85 -383 191 -517
271 -39 24 -74 44 -76 44 -2 0 0 -20 6 -44z"/>
<path d="M1890 2045 c0 -4 20 -30 45 -58 25 -29 45 -59 45 -68 0 -21 234 -239
257 -239 3 0 -36 43 -86 95 -97 102 -112 131 -61 120 46 -10 29 17 -48 75 -47
35 -69 47 -78 39 -8 -7 -21 -2 -43 17 -17 14 -31 23 -31 19z"/>
<path d="M3181 1830 c45 -42 99 -82 139 -101 36 -17 98 -47 138 -66 60 -28 72
-38 70 -55 -3 -24 52 -62 230 -156 117 -62 187 -86 210 -73 12 7 -5 19 -74 54
-87 44 -119 70 -162 133 -23 34 -186 120 -277 147 -53 15 -147 69 -252 143
-96 68 -108 55 -22 -26z"/>
<path d="M10763 1828 c-25 -33 -25 -40 1 -23 26 17 35 35 17 35 -5 0 -13 -6
-18 -12z"/>
<path d="M2082 1731 c6 -18 172 -161 186 -161 23 0 11 15 -78 94 -75 67 -118
93 -108 67z"/>
<path d="M10585 1700 c-3 -5 -2 -10 4 -10 5 0 13 5 16 10 3 6 2 10 -4 10 -5 0
-13 -4 -16 -10z"/>
<path d="M10210 1600 c-25 -22 -38 -39 -30 -39 8 0 35 17 60 39 25 22 38 40
30 40 -8 0 -35 -18 -60 -40z"/>
<path d="M10470 1585 c-20 -21 -22 -28 -12 -50 6 -14 15 -25 20 -25 9 0 72 80
72 92 0 19 -58 7 -80 -17z"/>
<path d="M4544 1411 c8 -12 46 -21 46 -11 0 8 -24 20 -41 20 -6 0 -8 -4 -5 -9z"/>
<path d="M2460 1383 c0 -5 15 -18 33 -31 19 -12 81 -65 138 -116 77 -70 111
-94 130 -94 17 1 84 -37 195 -109 93 -60 223 -138 289 -172 66 -34 131 -75
145 -90 25 -28 136 -81 168 -81 9 0 100 -40 202 -88 102 -49 223 -103 268
-121 46 -18 91 -36 100 -40 35 -17 453 -153 588 -190 279 -78 652 -152 956
-191 130 -16 433 -40 516 -40 68 0 72 1 63 18 -8 15 -27 20 -88 26 -80 6 -106
17 -86 37 8 8 51 10 133 7 l121 -4 -24 24 c-36 36 -154 41 -314 13 -117 -20
-246 -25 -308 -12 -21 4 -31 13 -33 28 -3 23 -43 36 -150 48 -30 3 -91 18
-135 32 -62 19 -94 24 -134 20 -44 -5 -55 -3 -63 12 -7 13 -31 21 -92 30 -95
13 -423 85 -459 100 -13 6 -79 24 -146 41 -67 17 -193 58 -280 91 -198 76
-198 76 -182 95 9 11 8 14 -4 14 -8 0 -45 9 -81 21 -51 15 -69 26 -76 44 -7
18 -31 30 -122 60 -62 21 -164 57 -226 81 -129 50 -143 52 -117 24 71 -78
-128 15 -217 102 -35 34 -65 52 -101 63 -54 16 -107 55 -107 80 0 20 30 19 92
-5 29 -11 55 -20 58 -20 3 0 -40 24 -95 54 -95 50 -124 61 -97 34 18 -18 14
-38 -6 -38 -24 0 -94 45 -214 137 -72 55 -102 73 -117 68 -12 -3 -40 4 -70 20
-28 14 -51 22 -51 18z"/>
<path d="M4634 1349 c9 -25 21 -33 86 -53 41 -13 125 -34 185 -46 176 -35 225
-49 303 -87 72 -35 76 -36 169 -31 114 6 135 19 66 41 -270 86 -283 89 -312
77 -50 -20 -275 23 -287 55 -3 8 -31 19 -61 25 -31 7 -79 20 -108 30 l-53 18
12 -29z"/>
<path d="M4235 1354 c23 -17 90 -36 113 -32 24 5 -42 34 -93 41 -37 6 -38 5
-20 -9z"/>
<path d="M4140 1296 c15 -14 70 -31 70 -21 0 7 -57 35 -72 35 -9 0 -8 -4 2
-14z"/>
<path d="M4420 1204 c0 -5 191 -76 194 -73 11 13 14 59 5 65 -10 6 -199 14
-199 8z"/>
<path d="M5729 1116 c-1 -3 -2 -9 -3 -13 -1 -5 -5 -14 -9 -21 -6 -8 0 -15 17
-22 60 -22 14 -50 -82 -50 -88 0 -132 9 -132 26 0 17 -41 19 -57 3 -6 -6 -45
-14 -86 -18 -42 -4 -79 -10 -82 -13 -17 -17 366 -78 530 -84 123 -5 144 -3
175 13 34 17 35 20 35 75 0 32 -5 62 -11 68 -18 18 -292 51 -295 36z"/>
<path d="M4690 1102 c41 -27 210 -71 210 -54 0 4 -44 19 -97 31 -54 13 -105
26 -113 28 -13 4 -13 3 0 -5z"/>
<path d="M4700 930 c15 -29 43 -40 97 -39 93 1 93 14 0 37 -108 27 -111 27
-97 2z"/>
<path d="M9540 886 c-57 -31 -70 -42 -53 -44 24 -4 124 40 142 62 26 31 -17
22 -89 -18z"/>
<path d="M8615 511 c-121 -43 -254 -92 -295 -109 -41 -18 -85 -32 -99 -32 -22
0 -91 -35 -91 -47 0 -2 14 -2 30 2 34 8 41 -9 13 -31 -10 -8 -13 -14 -6 -14
19 0 342 107 502 166 245 92 304 124 232 124 -17 0 -33 5 -36 10 -3 6 -12 10
-18 9 -7 0 -111 -35 -232 -78z"/>
<path d="M7870 304 c-141 -44 -506 -104 -918 -151 -179 -20 -241 -30 -238 -39
8 -22 -16 -31 -123 -48 -119 -19 -151 -33 -46 -20 39 5 95 7 125 6 85 -5 184
8 171 21 -6 6 -11 17 -11 24 0 19 186 18 233 -2 52 -21 151 -18 316 10 145 24
181 35 122 35 -19 0 -31 5 -29 11 5 14 203 83 351 122 64 17 117 34 117 39 0
11 -16 9 -70 -8z"/>
<path d="M7585 140 c-3 -6 1 -7 9 -4 18 7 21 14 7 14 -6 0 -13 -4 -16 -10z"/>
</g>
</svg>
