<?xml version="1.0" standalone="no"?>
<!DOCTYPE svg PUBLIC "-//W3C//DTD SVG 20010904//EN"
 "http://www.w3.org/TR/2001/REC-SVG-20010904/DTD/svg10.dtd">
<svg version="1.0" xmlns="http://www.w3.org/2000/svg"
 width="1183.000000pt" height="1280.000000pt" viewBox="0 0 1183.000000 1280.000000"
 preserveAspectRatio="xMidYMid meet">
<metadata>
Created by potrace 1.15, written by Peter Selinger 2001-2017
</metadata>
<g transform="translate(0.000000,1280.000000) scale(0.100000,-0.100000)"
fill="#000000" stroke="none">
<path d="M806 12215 l-750 -584 3 -49 c1 -29 -6 -73 -18 -109 -20 -59 -21 -85
-23 -951 -2 -702 0 -894 9 -903 10 -10 13 -730 13 -3531 l0 -3517 38 -10 c20
-6 2336 -584 5145 -1285 l5108 -1276 709 667 710 667 0 3639 c0 2385 -4 3637
-10 3635 -5 -2 -316 -291 -691 -643 -375 -352 -686 -642 -693 -644 -15 -5 -44
-32 704 670 l675 633 5 466 c3 256 4 467 3 469 -1 2 -8 -1 -15 -7 -9 -7 -68 3
-203 33 -272 62 -1099 251 -1820 415 -723 165 -1595 364 -1710 390 l-80 18 65
1 c36 1 261 -6 500 -14 239 -8 725 -24 1080 -35 355 -11 681 -21 724 -24 l79
-4 -7 479 -7 479 24 0 c13 0 29 6 37 13 8 7 7 1 -3 -15 -16 -25 -17 -70 -15
-488 l3 -460 705 662 705 662 6 461 c4 253 10 482 14 510 l7 49 -53 -45 -54
-45 -345 7 c-190 4 -590 12 -890 18 -300 6 -759 16 -1020 21 -261 5 -702 14
-980 20 -278 6 -723 15 -990 20 -618 12 -1338 27 -1980 40 -1587 32 -2361 48
-3198 65 -393 8 -726 15 -740 14 -20 0 -226 -155 -776 -584z"/>
</g>
</svg>
