<?xml version="1.0" encoding="UTF-8" standalone="no"?>
<svg
   version="1.0"
   width="1280.000000pt"
   height="394.000000pt"
   viewBox="0 0 1280.000000 394.000000"
   preserveAspectRatio="xMidYMid meet"
   id="svg27"
   sodipodi:docname="fita.svg"
   inkscape:version="1.2.2 (732a01da63, 2022-12-09)"
   xmlns:inkscape="http://www.inkscape.org/namespaces/inkscape"
   xmlns:sodipodi="http://sodipodi.sourceforge.net/DTD/sodipodi-0.dtd"
   xmlns="http://www.w3.org/2000/svg"
   xmlns:svg="http://www.w3.org/2000/svg">
  <defs
     id="defs31" />
  <sodipodi:namedview
     id="namedview29"
     pagecolor="#ffffff"
     bordercolor="#000000"
     borderopacity="0.25"
     inkscape:showpageshadow="2"
     inkscape:pageopacity="0.0"
     inkscape:pagecheckerboard="0"
     inkscape:deskcolor="#d1d1d1"
     inkscape:document-units="pt"
     showgrid="false"
     inkscape:zoom="0.73066406"
     inkscape:cx="852.64902"
     inkscape:cy="262.77466"
     inkscape:window-width="1920"
     inkscape:window-height="1017"
     inkscape:window-x="-8"
     inkscape:window-y="-8"
     inkscape:window-maximized="1"
     inkscape:current-layer="g25" />
  <metadata
     id="metadata21">
Created by potrace 1.15, written by Peter Selinger 2001-2017
</metadata>
  <g
     transform="matrix(0.10008026,0,0,-0.1,0,394)"
     fill="#000000"
     stroke="none"
     id="g25">
    <path
       d="m 0,3835 v -105 h 36 c 26,0 43,-8 65,-29 29,-29 29,-30 29,-149 0,-106 -2,-122 -21,-146 -17,-21 -29,-26 -65,-26 H 0 V 1975 570 h 40 c 31,0 47,-6 65,-26 24,-25 25,-33 25,-146 0,-119 0,-120 -29,-149 C 79,228 62,220 36,220 H 0 V 110 0 h 6395 6395 v 110 110 h -29 c -15,0 -40,9 -55,21 -26,20 -26,22 -26,155 0,133 0,135 26,159 16,15 39,25 55,25 h 29 v 1400 1400 h -35 c -22,0 -43,8 -55,20 -18,18 -20,33 -20,154 0,133 0,135 26,155 15,12 40,21 55,21 h 29 v 105 105 H 6395 0 Z m 619,-131 31,-26 v -126 c 0,-115 -2,-128 -22,-149 -19,-21 -31,-23 -106,-23 -123,0 -122,-1 -122,171 0,137 0,138 26,158 21,17 41,21 95,21 58,0 72,-4 98,-26 z m 555,0 c 25,-26 26,-30 26,-152 0,-115 -2,-128 -22,-149 -19,-21 -31,-23 -106,-23 -122,0 -122,0 -122,167 0,132 0,134 26,158 23,22 36,25 99,25 65,0 75,-3 99,-26 z m 530,5 c 26,-20 26,-22 26,-155 0,-171 -2,-174 -122,-174 -70,0 -85,3 -105,22 -22,20 -23,29 -23,148 0,164 11,179 131,180 52,0 72,-4 93,-21 z m 535,-6 c 27,-27 28,-31 29,-150 1,-108 -1,-124 -19,-147 -19,-24 -26,-26 -107,-26 -74,0 -89,3 -109,22 -22,20 -23,29 -23,149 v 127 l 31,26 c 26,23 40,26 101,26 63,0 72,-3 97,-27 z m 542,-2 c 29,-29 29,-30 29,-149 0,-106 -2,-122 -21,-146 -19,-25 -25,-26 -109,-26 -127,0 -130,4 -130,171 v 127 l 31,26 c 26,23 40,26 101,26 64,0 72,-2 99,-29 z m 538,3 31,-26 v -126 c 0,-115 -2,-128 -22,-149 -19,-21 -30,-23 -109,-23 -83,0 -89,1 -108,26 -19,24 -21,40 -21,146 0,119 0,120 29,149 27,27 35,29 99,29 61,0 75,-3 101,-26 z m 532,-3 c 29,-29 29,-31 29,-146 0,-102 -3,-121 -21,-146 -20,-28 -23,-29 -110,-29 -127,0 -129,2 -129,169 v 129 l 31,26 c 26,23 40,26 101,26 64,0 72,-2 99,-29 z m 510,-1 c 29,-28 29,-30 29,-148 0,-106 -2,-122 -21,-146 -19,-24 -26,-26 -95,-26 -66,0 -78,3 -99,25 -24,23 -25,30 -25,145 0,120 0,122 28,150 26,25 36,28 92,29 56,0 66,-3 91,-29 z m 518,4 31,-26 v -127 c 0,-166 -4,-171 -127,-171 -124,0 -123,-1 -123,171 v 137 l 28,21 c 21,16 42,20 94,21 57,0 71,-4 97,-26 z m 555,1 c 26,-24 26,-26 26,-155 0,-167 -2,-170 -125,-170 -123,0 -125,3 -125,170 0,129 0,131 26,155 23,22 36,25 99,25 63,0 76,-3 99,-25 z m 533,1 27,-24 -3,-133 c -3,-170 -3,-169 -119,-169 -74,0 -89,3 -109,22 -22,20 -23,29 -23,149 v 127 l 31,26 c 26,22 40,26 99,26 58,0 73,-4 97,-24 z m 534,-5 c 29,-29 29,-30 29,-149 0,-106 -2,-122 -21,-146 -19,-24 -25,-26 -107,-26 -74,0 -89,3 -109,22 -22,20 -23,29 -23,149 v 127 l 31,26 c 26,23 40,26 101,26 64,0 72,-2 99,-29 z m 540,0 c 29,-29 29,-30 29,-149 0,-106 -2,-122 -21,-146 -19,-24 -25,-26 -107,-26 -74,0 -89,3 -109,22 -22,20 -23,29 -23,149 v 127 l 31,26 c 26,23 40,26 101,26 64,0 72,-2 99,-29 z m 541,2 c 28,-27 28,-28 28,-152 0,-114 -2,-127 -22,-148 -19,-21 -31,-23 -106,-23 -123,0 -122,-1 -122,171 0,137 0,138 26,158 21,17 41,21 97,21 63,0 74,-3 99,-27 z m 529,-2 c 29,-29 29,-30 29,-149 0,-106 -2,-122 -21,-146 -19,-24 -25,-26 -107,-26 -74,0 -89,3 -109,22 -22,20 -23,29 -23,149 v 127 l 31,26 c 26,23 40,26 101,26 64,0 72,-2 99,-29 z m 509,3 30,-26 v -126 c 0,-115 -2,-128 -22,-149 -19,-20 -31,-23 -95,-23 -109,0 -113,6 -113,174 0,132 0,135 25,154 40,32 135,29 175,-4 z m 509,11 c 16,-8 31,-22 35,-30 3,-9 6,-73 6,-141 0,-160 -3,-164 -125,-164 -123,0 -125,3 -125,170 0,129 0,131 26,155 23,21 37,25 91,25 37,0 76,-6 92,-15 z m 565,-6 c 26,-20 26,-22 26,-155 0,-171 -2,-174 -123,-174 -123,0 -127,5 -127,170 v 128 l 31,26 c 26,22 40,26 98,26 54,0 74,-4 95,-21 z m 536,-7 28,-29 -3,-127 c -4,-164 -5,-166 -123,-166 -74,0 -89,3 -109,22 -22,20 -23,29 -23,149 v 127 l 31,26 c 26,23 40,26 101,26 63,0 72,-3 98,-28 z m 529,2 31,-26 v -123 c 0,-109 -2,-125 -21,-149 -19,-24 -25,-26 -107,-26 -74,0 -89,3 -109,22 -22,20 -23,29 -23,146 0,123 0,124 29,153 27,27 35,29 99,29 61,0 75,-3 101,-26 z m 542,-3 c 29,-29 29,-30 29,-149 0,-106 -2,-122 -21,-146 -19,-24 -25,-26 -107,-26 -74,0 -89,3 -109,22 -22,20 -23,29 -23,149 v 127 l 31,26 c 26,23 40,26 101,26 64,0 72,-2 99,-29 z m 541,2 c 28,-27 28,-28 28,-152 0,-114 -2,-127 -22,-148 -19,-21 -31,-23 -106,-23 -123,0 -122,-1 -122,171 0,137 0,138 26,158 21,17 41,21 97,21 63,0 74,-3 99,-27 z m 529,-2 c 29,-29 29,-30 29,-149 0,-106 -2,-122 -21,-146 -19,-24 -25,-26 -107,-26 -74,0 -89,3 -109,22 -22,20 -23,29 -23,149 v 127 l 31,26 c 26,23 40,26 101,26 64,0 72,-2 99,-29 z M 4180,1990 V 650 L 2145,648 110,645 v 1343 1342 h 2035 2035 z m 4260,0 V 650 H 6405 4370 v 1340 1340 h 2035 2035 z m 4260,0 V 650 H 10665 8630 v 1340 1340 h 2035 2035 z M 4313,570 c 16,0 38,-10 52,-25 24,-23 25,-30 25,-145 0,-120 0,-122 -29,-150 -25,-26 -35,-29 -91,-29 -56,1 -66,4 -92,29 -28,28 -28,30 -28,150 v 122 l 30,30 c 27,26 36,30 68,24 20,-3 50,-6 65,-6 z m 4315,-27 c 20,-22 22,-33 22,-148 V 272 l -30,-26 c -40,-33 -135,-36 -175,-4 -25,19 -25,22 -25,158 0,138 0,139 27,159 23,19 35,20 92,15 53,-5 71,-11 89,-31 z m -8001,5 c 22,-20 23,-29 23,-148 0,-124 -1,-128 -26,-154 -24,-23 -34,-26 -99,-26 -58,0 -78,4 -99,21 -26,20 -26,21 -26,159 0,169 1,170 124,170 68,0 83,-3 103,-22 z m 550,0 c 22,-20 23,-29 23,-150 0,-124 -1,-130 -25,-153 -21,-22 -33,-25 -98,-25 -60,0 -79,4 -101,21 -26,20 -26,22 -26,152 0,120 2,133 22,154 19,20 31,23 102,23 68,0 83,-3 103,-22 z m 530,0 c 22,-20 23,-28 23,-154 0,-131 0,-133 -26,-153 -22,-17 -41,-21 -101,-21 -65,0 -77,3 -98,25 -24,23 -25,30 -25,151 0,117 2,130 22,151 19,20 31,23 102,23 68,0 83,-3 103,-22 z m 531,2 c 21,-19 22,-30 22,-155 0,-132 0,-134 -26,-154 -21,-17 -41,-21 -99,-21 -63,0 -76,3 -99,25 -26,24 -26,26 -26,154 0,128 0,130 26,150 38,30 170,30 202,1 z m 539,-2 c 22,-20 23,-28 23,-154 0,-131 0,-133 -26,-153 -22,-17 -41,-21 -101,-21 -65,0 -77,3 -98,25 -24,23 -25,30 -25,151 0,117 2,130 22,151 19,20 31,23 102,23 68,0 83,-3 103,-22 z m 548,-3 c 24,-23 25,-30 25,-146 0,-120 -1,-124 -27,-151 -25,-26 -32,-28 -104,-28 -74,0 -78,1 -103,31 -25,29 -26,36 -26,150 0,114 1,121 25,144 22,22 32,25 105,25 73,0 83,-3 105,-25 z m 525,5 c 21,-21 22,-29 22,-190 0,-90 -1,-95 -27,-117 -22,-20 -37,-23 -101,-23 -66,0 -78,3 -99,25 -24,23 -25,30 -25,151 0,117 2,130 22,151 19,20 31,23 105,23 70,0 86,-3 103,-20 z m 1037,-2 c 22,-20 23,-29 23,-150 0,-127 0,-129 -26,-153 -23,-22 -36,-25 -99,-25 -58,0 -78,4 -99,21 -26,20 -26,22 -26,154 0,170 4,175 124,175 68,0 83,-3 103,-22 z m 550,0 c 22,-20 23,-29 23,-150 0,-124 -1,-130 -25,-153 -21,-22 -33,-25 -98,-25 -60,0 -79,4 -101,21 -26,20 -26,22 -26,152 0,120 2,133 22,154 19,20 31,23 102,23 68,0 83,-3 103,-22 z m 530,0 c 22,-20 23,-28 23,-154 0,-131 0,-133 -26,-153 -22,-17 -41,-21 -101,-21 -65,0 -77,3 -98,25 -24,23 -25,29 -25,154 0,128 0,130 26,150 22,17 41,21 102,21 64,0 79,-3 99,-22 z m 538,-3 c 24,-23 25,-30 25,-145 0,-121 0,-122 -29,-151 -27,-27 -35,-29 -104,-29 -67,0 -77,3 -101,26 -25,26 -26,30 -26,151 0,118 1,125 25,148 22,22 32,25 105,25 73,0 83,-3 105,-25 z m 533,5 c 20,-19 22,-31 22,-130 0,-59 3,-115 6,-124 4,-10 -6,-27 -24,-46 -28,-28 -35,-30 -105,-30 -67,0 -77,3 -101,26 -25,26 -26,30 -26,155 0,126 0,128 26,148 38,30 170,30 202,1 z m 551,-6 c 19,-24 21,-40 21,-147 0,-118 -1,-122 -27,-149 -25,-26 -32,-28 -104,-28 -73,0 -79,2 -102,29 -22,27 -24,38 -26,150 -2,117 -1,122 23,146 23,23 33,25 110,25 79,0 86,-2 105,-26 z m 522,7 c 23,-18 24,-27 27,-145 l 4,-126 -30,-30 c -28,-28 -36,-30 -105,-30 -65,0 -77,3 -101,25 -26,24 -26,26 -26,154 0,128 0,130 26,150 37,29 170,30 205,2 z m 1036,-3 c 22,-20 23,-29 23,-150 0,-127 0,-129 -26,-153 -23,-22 -36,-25 -99,-25 -58,0 -78,4 -99,21 -26,20 -26,22 -26,152 0,120 2,133 22,154 19,20 31,23 102,23 68,0 83,-3 103,-22 z m 550,0 c 22,-20 23,-28 23,-154 0,-131 0,-133 -26,-153 -22,-17 -41,-21 -101,-21 -65,0 -77,3 -98,25 -24,23 -25,30 -25,151 0,117 2,130 22,151 19,20 31,23 102,23 68,0 83,-3 103,-22 z m 530,0 c 22,-20 23,-28 23,-154 0,-131 0,-133 -26,-153 -21,-17 -41,-21 -99,-21 -63,0 -76,3 -99,25 -26,24 -26,26 -26,154 0,128 0,130 26,150 22,17 41,21 102,21 64,0 79,-3 99,-22 z m 538,-3 c 24,-23 25,-30 25,-149 V 272 l -31,-26 c -27,-23 -40,-26 -103,-26 -66,0 -75,2 -99,28 -26,27 -27,31 -27,151 0,116 1,123 25,146 22,22 32,25 105,25 73,0 83,-3 105,-25 z m 535,5 c 17,-17 20,-33 20,-122 0,-57 3,-113 6,-125 5,-16 -2,-30 -24,-53 -28,-28 -35,-30 -105,-30 -67,0 -77,3 -101,26 -25,26 -26,30 -26,151 0,118 1,125 25,148 22,22 32,25 105,25 67,0 83,-3 100,-20 z m 549,-6 c 19,-24 21,-40 21,-149 0,-119 -1,-123 -26,-149 -24,-23 -34,-26 -99,-26 -57,0 -78,4 -97,20 -24,18 -25,26 -30,137 -8,176 2,192 129,193 76,0 83,-2 102,-26 z m 530,0 c 19,-24 21,-40 21,-146 0,-119 0,-120 -29,-149 -27,-27 -35,-29 -104,-29 -67,0 -77,3 -101,26 -25,26 -26,30 -26,151 0,118 1,125 25,148 22,23 32,25 109,25 79,0 86,-2 105,-26 z"
       id="path23" />
  </g>
</svg>
