<?xml version="1.0" encoding="UTF-8" standalone="no"?>
<!-- Created with Inkscape (http://www.inkscape.org/) -->

<svg
   width="210mm"
   height="297mm"
   viewBox="0 0 210 297"
   version="1.1"
   id="svg5"
   inkscape:version="1.2.2 (732a01da63, 2022-12-09)"
   sodipodi:docname="logoteste.svg"
   xml:space="preserve"
   inkscape:export-filename="logoteste.svg"
   inkscape:export-xdpi="96"
   inkscape:export-ydpi="96"
   xmlns:inkscape="http://www.inkscape.org/namespaces/inkscape"
   xmlns:sodipodi="http://sodipodi.sourceforge.net/DTD/sodipodi-0.dtd"
   xmlns="http://www.w3.org/2000/svg"
   xmlns:svg="http://www.w3.org/2000/svg"><sodipodi:namedview
     id="namedview7"
     pagecolor="#ffffff"
     bordercolor="#000000"
     borderopacity="0.25"
     inkscape:showpageshadow="2"
     inkscape:pageopacity="0.0"
     inkscape:pagecheckerboard="0"
     inkscape:deskcolor="#d1d1d1"
     inkscape:document-units="mm"
     showgrid="false"
     inkscape:zoom="0.74564396"
     inkscape:cx="675.25525"
     inkscape:cy="495.54482"
     inkscape:window-width="1387"
     inkscape:window-height="1040"
     inkscape:window-x="2076"
     inkscape:window-y="0"
     inkscape:window-maximized="0"
     inkscape:current-layer="layer1" /><defs
     id="defs2"><rect
       x="253.47219"
       y="388.92558"
       width="26.822447"
       height="20.116835"
       id="rect7575" /><filter
       inkscape:collect="always"
       style="color-interpolation-filters:sRGB"
       id="filter7635"
       x="-0.0001591242"
       y="-0.00012820864"
       width="1.0003182"
       height="1.0002564"><feGaussianBlur
         inkscape:collect="always"
         stdDeviation="0.00043821312"
         id="feGaussianBlur7637" /></filter></defs><g
     inkscape:label="Camada 1"
     inkscape:groupmode="layer"
     id="layer1"><ellipse
       style="fill:#ff5555;stroke-width:0.264583;fill-opacity:1"
       id="path111"
       cx="103.08064"
       cy="131.46774"
       rx="89.241936"
       ry="84.274193" /><ellipse
       style="fill:#93ff55;fill-opacity:1;stroke-width:0.260793"
       id="path111-6"
       cx="103.08064"
       cy="131.46773"
       rx="88.000008"
       ry="83.032257" /><ellipse
       style="fill:#ff5555;fill-opacity:1;stroke-width:0.256444"
       id="path111-6-2"
       cx="103.08066"
       cy="131.46776"
       rx="86.758072"
       ry="81.435486" /><path
       sodipodi:type="star"
       style="fill:#f9ff2b;fill-opacity:1;stroke-width:0.264583"
       id="path7429-0"
       inkscape:flatsided="false"
       sodipodi:sides="5"
       sodipodi:cx="24.838709"
       sodipodi:cy="141.93549"
       sodipodi:r1="13.413654"
       sodipodi:r2="6.7068267"
       sodipodi:arg1="0.9167136"
       sodipodi:arg2="1.5450321"
       inkscape:rounded="0"
       inkscape:randomized="0"
       d="m 32.999999,152.58065 -7.988513,-3.94056 -7.77495,4.34678 1.27911,-8.81523 -6.536629,-6.05118 8.779047,-1.50755 3.735091,-8.08663 4.14664,7.88351 8.845041,1.05338 -6.216282,6.37983 z"
       inkscape:transform-center-x="0.050330677"
       inkscape:transform-center-y="-0.51193308"
       transform="matrix(0.47134138,0,0,0.43424458,70.310562,135.28045)" /><path
       sodipodi:type="star"
       style="fill:#f9ff2b;fill-opacity:1;stroke-width:0.264583"
       id="path7429-28"
       inkscape:flatsided="false"
       sodipodi:sides="5"
       sodipodi:cx="24.838709"
       sodipodi:cy="141.93549"
       sodipodi:r1="13.413654"
       sodipodi:r2="6.7068267"
       sodipodi:arg1="0.9167136"
       sodipodi:arg2="1.5450321"
       inkscape:rounded="0"
       inkscape:randomized="0"
       d="m 32.999999,152.58065 -7.988513,-3.94056 -7.77495,4.34678 1.27911,-8.81523 -6.536629,-6.05118 8.779047,-1.50755 3.735091,-8.08663 4.14664,7.88351 8.845041,1.05338 -6.216282,6.37983 z"
       inkscape:transform-center-x="0.065186113"
       inkscape:transform-center-y="-0.64874728"
       transform="matrix(0.61046207,0,0,0.55029697,48.773065,110.42918)" /><ellipse
       style="fill:#ff5555;fill-opacity:1;stroke-width:0.17679"
       id="path111-5"
       cx="103.25806"
       cy="131.29033"
       rx="60.854839"
       ry="55.177422" /><ellipse
       style="fill:#e2ff29;fill-opacity:1;stroke-width:0.177079"
       id="path111-6-5"
       cx="103.25806"
       cy="129.51611"
       rx="60.007957"
       ry="56.138474" /><ellipse
       style="fill:#45c167;fill-opacity:1;stroke-width:0.17418"
       id="path111-6-2-6"
       cx="103.25807"
       cy="129.51616"
       rx="59.161064"
       ry="55.093014" /><path
       sodipodi:type="star"
       style="fill:#f9ff2b;fill-opacity:1;stroke-width:0.264583"
       id="path3943"
       inkscape:flatsided="false"
       sodipodi:sides="5"
       sodipodi:cx="23.064516"
       sodipodi:cy="114.25806"
       sodipodi:r1="14.193549"
       sodipodi:r2="7.0967741"
       sodipodi:arg1="0.92729522"
       sodipodi:arg2="1.5556137"
       inkscape:rounded="0"
       inkscape:randomized="0"
       d="m 31.580646,125.6129 -8.408386,-4.25889 -8.275209,4.51221 1.452104,-9.31292 -6.8485395,-6.47585 9.3058355,-1.49681 4.042579,-8.5145 4.299218,8.38784 9.346991,1.21359 -6.648773,6.68079 z"
       inkscape:transform-center-x="0.062212701"
       inkscape:transform-center-y="-1.1497364"
       transform="matrix(0.93427604,0,0,0.8899728,8.7857084,21.655159)" /><path
       sodipodi:type="star"
       style="fill:#f9ff2b;fill-opacity:1;stroke-width:0.264583"
       id="path7429"
       inkscape:flatsided="false"
       sodipodi:sides="5"
       sodipodi:cx="24.838709"
       sodipodi:cy="141.93549"
       sodipodi:r1="13.413654"
       sodipodi:r2="6.7068267"
       sodipodi:arg1="0.9167136"
       sodipodi:arg2="1.5450321"
       inkscape:rounded="0"
       inkscape:randomized="0"
       d="m 32.999999,152.58065 -7.988513,-3.94056 -7.77495,4.34678 1.27911,-8.81523 -6.536629,-6.05118 8.779047,-1.50755 3.735091,-8.08663 4.14664,7.88351 8.845041,1.05338 -6.216282,6.37983 z"
       inkscape:transform-center-x="0.08895551"
       inkscape:transform-center-y="-0.93948423"
       transform="matrix(0.83305517,0,0,0.79690831,13.354674,37.457459)" /><path
       sodipodi:type="star"
       style="fill:#f9ff2b;fill-opacity:1;stroke-width:0.264583"
       id="path7429-2"
       inkscape:flatsided="false"
       sodipodi:sides="5"
       sodipodi:cx="24.838709"
       sodipodi:cy="141.93549"
       sodipodi:r1="13.413654"
       sodipodi:r2="6.7068267"
       sodipodi:arg1="0.9167136"
       sodipodi:arg2="1.5450321"
       inkscape:rounded="0"
       inkscape:randomized="0"
       d="m 32.999999,152.58065 -7.988513,-3.94056 -7.77495,4.34678 1.27911,-8.81523 -6.536629,-6.05118 8.779047,-1.50755 3.735091,-8.08663 4.14664,7.88351 8.845041,1.05338 -6.216282,6.37983 z"
       inkscape:transform-center-x="0.077071312"
       inkscape:transform-center-y="-0.81977142"
       transform="matrix(0.72175862,0,0,0.69536246,27.923712,75.107031)" /><path
       sodipodi:type="star"
       style="fill:#f9ff2b;fill-opacity:1;stroke-width:0.264583"
       id="path7429-0-8"
       inkscape:flatsided="false"
       sodipodi:sides="5"
       sodipodi:cx="24.838709"
       sodipodi:cy="141.93549"
       sodipodi:r1="13.413654"
       sodipodi:r2="6.7068267"
       sodipodi:arg1="0.9167136"
       sodipodi:arg2="1.5450321"
       inkscape:rounded="0"
       inkscape:randomized="0"
       d="m 32.999999,152.58065 -7.988513,-3.94056 -7.77495,4.34678 1.27911,-8.81523 -6.536629,-6.05118 8.779047,-1.50755 3.735091,-8.08663 4.14664,7.88351 8.845041,1.05338 -6.216282,6.37983 z"
       inkscape:transform-center-x="-0.049231305"
       inkscape:transform-center-y="-0.51193308"
       transform="matrix(-0.46103977,0,0,0.43424458,137.24685,134.84191)" /><path
       sodipodi:type="star"
       style="fill:#f9ff2b;fill-opacity:1;stroke-width:0.264583"
       id="path7429-28-5"
       inkscape:flatsided="false"
       sodipodi:sides="5"
       sodipodi:cx="24.838709"
       sodipodi:cy="141.93549"
       sodipodi:r1="13.413654"
       sodipodi:r2="6.7068267"
       sodipodi:arg1="0.9167136"
       sodipodi:arg2="1.5450321"
       inkscape:rounded="0"
       inkscape:randomized="0"
       d="m 32.999999,152.58065 -7.988513,-3.94056 -7.77495,4.34678 1.27911,-8.81523 -6.536629,-6.05118 8.779047,-1.50755 3.735091,-8.08663 4.14664,7.88351 8.845041,1.05338 -6.216282,6.37983 z"
       inkscape:transform-center-x="-0.06375785"
       inkscape:transform-center-y="-0.64874728"
       transform="matrix(-0.59711985,0,0,0.55029697,158.31363,109.99064)" /><path
       sodipodi:type="star"
       style="fill:#f9ff2b;fill-opacity:1;stroke-width:0.264583"
       id="path3943-9"
       inkscape:flatsided="false"
       sodipodi:sides="5"
       sodipodi:cx="23.064516"
       sodipodi:cy="114.25806"
       sodipodi:r1="14.193549"
       sodipodi:r2="7.0967741"
       sodipodi:arg1="0.92729522"
       sodipodi:arg2="1.5556137"
       inkscape:rounded="0"
       inkscape:randomized="0"
       d="m 31.580646,125.6129 -8.408386,-4.25889 -8.275209,4.51221 1.452104,-9.31292 -6.8485395,-6.47585 9.3058355,-1.49681 4.042579,-8.5145 4.299218,8.38784 9.346991,1.21359 -6.648773,6.68079 z"
       inkscape:transform-center-x="-0.060849848"
       inkscape:transform-center-y="-1.1497364"
       transform="matrix(-0.91385658,0,0,0.8899728,197.42702,21.216616)" /><path
       sodipodi:type="star"
       style="fill:#f9ff2b;fill-opacity:1;stroke-width:0.264583"
       id="path3943-7"
       inkscape:flatsided="false"
       sodipodi:sides="5"
       sodipodi:cx="23.064516"
       sodipodi:cy="114.25806"
       sodipodi:r1="14.193549"
       sodipodi:r2="7.0967741"
       sodipodi:arg1="0.92729522"
       sodipodi:arg2="1.5556137"
       inkscape:rounded="0"
       inkscape:randomized="0"
       d="m 31.580646,125.6129 -8.408386,-4.25889 -8.275209,4.51221 1.452104,-9.31292 -6.8485395,-6.47585 9.3058355,-1.49681 4.042579,-8.5145 4.299218,8.38784 9.346991,1.21359 -6.648773,6.68079 z"
       inkscape:transform-center-x="0.061872161"
       inkscape:transform-center-y="-1.1497364"
       transform="matrix(0.9291625,0,0,0.8899728,18.53991,-5.9758274)" /><path
       sodipodi:type="star"
       style="fill:#f9ff2b;fill-opacity:1;stroke-width:0.264583"
       id="path3943-9-7"
       inkscape:flatsided="false"
       sodipodi:sides="5"
       sodipodi:cx="23.064516"
       sodipodi:cy="114.25806"
       sodipodi:r1="14.193549"
       sodipodi:r2="7.0967741"
       sodipodi:arg1="0.92729522"
       sodipodi:arg2="1.5556137"
       inkscape:rounded="0"
       inkscape:randomized="0"
       d="m 31.580646,125.6129 -8.408386,-4.25889 -8.275209,4.51221 1.452104,-9.31292 -6.8485395,-6.47585 9.3058355,-1.49681 4.042579,-8.5145 4.299218,8.38784 9.346991,1.21359 -6.648773,6.68079 z"
       inkscape:transform-center-x="-0.058144943"
       inkscape:transform-center-y="-1.1497364"
       transform="matrix(-0.8733009,0,0,0.8899728,185.67098,-6.4143704)" /><path
       sodipodi:type="star"
       style="fill:#f9ff2b;fill-opacity:1;stroke-width:0.264583"
       id="path7429-9"
       inkscape:flatsided="false"
       sodipodi:sides="5"
       sodipodi:cx="24.838709"
       sodipodi:cy="141.93549"
       sodipodi:r1="13.413654"
       sodipodi:r2="6.7068267"
       sodipodi:arg1="0.9167136"
       sodipodi:arg2="1.5450321"
       inkscape:rounded="0"
       inkscape:randomized="0"
       d="m 32.999999,152.58065 -7.988513,-3.94056 -7.77495,4.34678 1.27911,-8.81523 -6.536629,-6.05118 8.779047,-1.50755 3.735091,-8.08663 4.14664,7.88351 8.845041,1.05338 -6.216282,6.37983 z"
       inkscape:transform-center-x="-0.087009673"
       inkscape:transform-center-y="-0.93948423"
       transform="matrix(-0.81484797,0,0,0.79690831,192.95792,37.018916)" /><path
       sodipodi:type="star"
       style="fill:#f9ff2b;fill-opacity:1;stroke-width:0.264583"
       id="path7429-2-0"
       inkscape:flatsided="false"
       sodipodi:sides="5"
       sodipodi:cx="24.838709"
       sodipodi:cy="141.93549"
       sodipodi:r1="13.413654"
       sodipodi:r2="6.7068267"
       sodipodi:arg1="0.9167136"
       sodipodi:arg2="1.5450321"
       inkscape:rounded="0"
       inkscape:randomized="0"
       d="m 32.999999,152.58065 -7.988513,-3.94056 -7.77495,4.34678 1.27911,-8.81523 -6.536629,-6.05118 8.779047,-1.50755 3.735091,-8.08663 4.14664,7.88351 8.845041,1.05338 -6.216282,6.37983 z"
       inkscape:transform-center-x="-0.075385265"
       inkscape:transform-center-y="-0.81977142"
       transform="matrix(-0.70598391,0,0,0.69536246,178.7073,74.668491)" /><text
       xml:space="preserve"
       transform="matrix(7.9651933,0,0,7.0707354,-1960.145,-2660.1556)"
       id="text7573"
       style="font-style:normal;font-variant:normal;font-weight:normal;font-stretch:normal;font-family:'Microsoft Himalaya';-inkscape-font-specification:'Microsoft Himalaya';white-space:pre;shape-inside:url(#rect7575);display:inline;opacity:0.99;fill:#ffffff;fill-opacity:1;stroke-width:1.00002;stroke-dasharray:none;filter:url(#filter7635)"><tspan
         x="253.47266"
         y="399.88732"
         id="tspan3049"><tspan
           style="font-family:Anuphan;-inkscape-font-specification:Anuphan"
           id="tspan3047">&amp;</tspan></tspan></text><g
       transform="matrix(0.00267163,0,0,-0.00224913,119.94985,123.2463)"
       fill="#000000"
       stroke="none"
       id="g11080"
       style="fill:#ffffff;fill-opacity:1"><path
         d="m 9276,12743 c 15,-27 48,-79 74,-118 63,-93 83,-135 113,-230 40,-128 50,-230 44,-430 -6,-203 -31,-348 -90,-521 -80,-232 -142,-342 -274,-484 -331,-356 -727,-609 -1307,-835 C 7517,10001 7290,9934 6730,9796 6287,9687 6169,9653 5940,9565 5048,9225 4521,8830 4315,8349 4084,7811 4031,7197 4186,6872 c 63,-131 195,-245 328,-281 l 39,-10 -6,62 c -3,34 -24,114 -46,177 -46,132 -61,233 -61,407 0,443 160,874 457,1230 76,92 135,139 271,220 292,173 621,278 1257,403 931,183 1557,380 2026,636 213,116 322,192 624,434 268,215 475,363 475,339 0,-21 -72,-194 -116,-280 -169,-327 -442,-603 -885,-892 -202,-132 -748,-469 -908,-561 -192,-111 -335,-181 -596,-291 -382,-162 -538,-249 -661,-368 -47,-47 -64,-70 -64,-90 0,-15 1,-27 3,-27 7,0 717,192 817,221 196,57 454,138 648,204 1544,522 2275,1266 2338,2378 13,217 -29,417 -111,541 -21,33 -40,55 -42,50 -1,-5 -14,-63 -29,-129 -53,-243 -109,-379 -186,-457 -75,-76 -82,-66 -43,65 19,61 59,184 89,272 72,210 120,387 141,521 22,140 16,323 -15,439 -70,262 -277,499 -574,656 -50,27 -95,49 -99,49 -5,0 4,-21 19,-47 z"
         id="path11068"
         style="fill:#ffffff;fill-opacity:1" /><path
         d="m 10080,11654 c 13,-21 63,-102 110,-179 105,-168 139,-235 173,-337 38,-115 51,-221 44,-377 -18,-383 -173,-757 -477,-1151 -105,-135 -363,-389 -506,-497 -161,-122 -344,-241 -544,-354 -167,-93 -798,-409 -819,-409 -6,0 -11,-4 -11,-8 0,-9 316,25 530,58 921,139 1613,422 2010,821 233,233 475,664 565,1003 73,272 84,548 30,761 -8,33 -38,106 -66,162 -154,310 -524,522 -943,541 l -119,5 z"
         id="path11070"
         style="fill:#ffffff;fill-opacity:1" /><path
         d="M 8620,9589 C 8314,9370 8047,9249 7230,8960 6702,8773 6481,8686 6265,8581 5562,8240 5206,7814 5115,7203 c -24,-163 -21,-190 26,-272 43,-75 81,-113 104,-105 11,5 10,14 -6,47 -27,60 -24,141 11,287 16,69 30,140 30,159 0,28 14,49 88,129 181,198 433,409 717,601 317,214 621,383 1300,724 428,215 666,343 819,440 233,147 526,380 526,418 0,30 -19,23 -110,-42 z"
         id="path11072"
         style="fill:#ffffff;fill-opacity:1" /><path
         d="m 3849,7416 c -7,-7 -248,-45 -384,-61 -71,-8 -312,-31 -535,-50 -794,-69 -1071,-116 -1373,-233 -109,-43 -157,-73 -214,-136 -71,-77 -88,-117 -88,-201 0,-96 35,-165 165,-325 56,-69 121,-151 145,-182 86,-115 197,-365 300,-678 169,-515 488,-1434 665,-1915 276,-752 380,-1136 430,-1590 41,-379 66,-471 157,-583 83,-102 302,-211 543,-271 585,-144 1473,-92 2147,126 l 142,45 47,112 c 85,204 126,345 159,552 5,30 7,31 67,37 41,4 84,17 134,41 106,53 186,143 298,337 181,313 206,339 494,532 492,329 951,764 1178,1117 172,266 258,512 270,775 16,337 -93,659 -291,860 -59,60 -101,91 -160,122 -216,112 -400,110 -507,-5 -80,-86 -114,-162 -193,-437 -48,-165 -101,-289 -137,-322 -21,-18 -21,-18 -14,32 4,28 32,151 61,275 30,124 61,266 70,315 22,126 31,335 16,363 -8,15 -33,28 -84,42 -47,14 -80,30 -96,47 l -23,27 33,28 c 34,28 108,67 291,151 169,79 224,151 222,297 0,56 -6,85 -22,116 -140,269 -877,526 -1647,574 -179,11 -448,12 -512,2 -88,-14 -211,-160 -229,-270 -4,-23 -4,-42 -1,-42 2,0 40,-7 83,-15 284,-53 803,-99 1359,-120 88,-3 171,-8 185,-11 46,-10 7,13 -60,34 -175,56 -335,86 -730,137 -298,38 -498,70 -509,80 -3,4 21,4 54,1 33,-3 137,-8 230,-11 433,-15 761,-64 989,-150 98,-37 230,-107 281,-150 l 30,-26 -35,-30 c -198,-172 -503,-288 -916,-348 -213,-31 -336,-41 -614,-50 -243,-8 -441,-5 -1265,18 -198,6 -472,11 -609,11 -594,0 -1098,38 -1406,106 -237,53 -414,121 -491,191 -53,48 -69,81 -69,142 0,126 51,133 120,17 26,-43 73,-76 110,-76 14,0 104,27 200,61 283,98 485,125 1153,154 197,9 395,20 440,25 45,6 87,10 94,10 9,0 11,15 7,53 -26,267 -49,327 -127,327 -13,0 -26,-2 -28,-4 z M 1642,6795 c 237,-251 511,-382 863,-415 72,-7 132,-14 133,-15 7,-7 -74,-26 -153,-36 -195,-26 -571,31 -740,111 -75,36 -142,104 -184,189 -38,74 -65,183 -56,228 10,56 38,43 137,-62 z m 187,-455 c 419,-153 1021,-262 1711,-310 706,-48 1705,-39 2680,25 l 75,5 -65,-20 c -224,-67 -570,-121 -980,-152 -217,-17 -1078,-17 -1350,0 -420,26 -1047,89 -1564,158 -339,44 -525,139 -585,297 -6,15 -9,27 -8,27 2,0 41,-14 86,-30 z m 457,-470 c 103,-25 261,-45 569,-70 375,-31 532,-60 665,-124 l 65,-31 -230,-3 c -327,-4 -711,20 -1035,67 l -115,16 -3,83 c -2,45 -1,82 1,82 2,0 40,-9 83,-20 z m 244,-356 c 325,-77 384,-84 596,-71 157,10 199,2 243,-48 59,-67 71,-65 -326,-65 -432,0 -586,13 -755,61 l -68,20 v 85 84 l 43,-6 c 23,-3 143,-30 267,-60 z m 5537,-137 c 76,-16 131,-54 177,-120 67,-98 81,-152 80,-322 -1,-182 -18,-257 -98,-420 -94,-194 -169,-287 -521,-645 -132,-135 -263,-275 -290,-312 -36,-50 -58,-71 -84,-79 -56,-18 -201,-92 -277,-141 -96,-62 -238,-183 -310,-264 -112,-127 -273,-350 -359,-497 -15,-26 -29,-46 -31,-44 -6,6 91,331 134,452 22,61 65,173 95,250 53,135 83,206 292,700 105,250 211,526 270,703 20,61 41,112 47,112 18,0 110,50 142,77 47,39 119,127 199,243 188,272 324,351 534,307 z M 2416,5205 c 54,-8 223,-22 374,-30 421,-23 546,-42 675,-104 l 60,-29 -135,-1 c -74,0 -252,-6 -395,-12 -345,-16 -498,0 -642,66 l -53,24 v 50 c 0,28 4,51 8,51 5,0 53,-7 108,-15 z m 13,-309 c 124,-32 273,-50 701,-82 203,-15 432,-44 479,-62 21,-8 18,-10 -36,-25 -116,-33 -268,-41 -548,-28 -143,6 -341,11 -440,11 h -180 l -23,73 c -21,69 -29,127 -16,127 3,0 32,-7 63,-14 z m 246,-375 c 94,-6 258,-16 365,-21 276,-16 466,-52 580,-110 l 35,-18 -50,-8 c -66,-12 -442,-11 -790,0 l -280,9 -32,49 c -38,55 -47,123 -15,114 9,-3 94,-10 187,-15 z m 297,-356 c 204,-17 609,-63 615,-69 11,-11 -92,-58 -153,-71 -79,-17 -307,-19 -454,-6 -52,5 -148,13 -212,16 l -117,7 -11,34 c -6,18 -22,49 -35,69 l -24,35 h 104 c 57,0 186,-7 287,-15 z m -39,-305 c 386,-23 725,-72 714,-104 -7,-22 -113,-66 -187,-77 -57,-9 -130,-8 -305,1 -126,7 -262,11 -301,9 l -72,-5 -12,56 c -7,30 -21,72 -31,93 -23,44 -46,41 194,27 z m -8,-349 c 80,-30 189,-41 420,-41 275,0 371,-17 452,-80 l 23,-18 -26,-6 c -146,-37 -716,-50 -861,-20 -16,3 -23,12 -23,28 0,13 -11,48 -25,78 -25,54 -31,78 -17,78 4,0 30,-9 57,-19 z m 260,-391 c 44,-6 265,-17 490,-25 226,-8 412,-15 414,-15 16,-1 -31,-33 -86,-58 -100,-46 -213,-62 -518,-72 -148,-6 -289,-13 -312,-16 -31,-5 -43,-3 -43,6 0,7 -11,27 -24,44 -36,49 -56,92 -56,126 0,29 2,31 28,26 15,-3 63,-10 107,-16 z m 542,-359 c 238,-4 436,-11 440,-14 3,-4 -2,-14 -13,-22 -61,-48 -183,-89 -314,-105 -93,-11 -504,-14 -587,-4 -49,6 -53,9 -53,33 -1,14 -9,44 -19,65 -28,60 -20,70 53,62 34,-4 256,-10 493,-15 z m -92,-321 c 246,-19 505,-47 513,-55 6,-6 -69,-50 -117,-69 -92,-36 -182,-49 -351,-49 -160,-1 -210,5 -352,40 l -68,17 v 74 75 l 58,-7 c 31,-3 174,-15 317,-26 z m -175,-300 c 63,-5 187,-14 275,-20 198,-13 362,-35 463,-61 42,-11 79,-22 81,-25 8,-8 -105,-52 -174,-67 -222,-50 -559,-16 -742,74 l -63,30 v 45 c 0,41 2,44 23,39 12,-2 74,-9 137,-15 z m -120,-321 c 407,-109 1049,-179 1643,-179 103,0 167,-4 167,-10 0,-16 -74,-60 -126,-76 -84,-25 -282,-45 -514,-51 -350,-9 -721,21 -1006,82 -174,36 -197,45 -206,82 -5,17 -19,51 -33,75 -26,46 -33,98 -12,98 6,0 46,-10 87,-21 z"
         id="path11074"
         style="fill:#ffffff;fill-opacity:1" /><path
         d="m 7805,4903 c -299,-223 -511,-488 -624,-778 -59,-153 -118,-415 -93,-415 17,0 143,59 206,97 86,51 268,189 353,267 61,57 74,75 88,122 19,66 67,123 143,167 53,31 55,35 117,167 71,153 95,237 95,331 0,86 -7,109 -34,109 -11,0 -39,7 -61,15 -22,8 -45,14 -50,15 -6,0 -69,-44 -140,-97 z"
         id="path11076"
         style="fill:#ffffff;fill-opacity:1" /><path
         d="m 2240,2114 c -25,-2 -101,-8 -170,-14 C 1368,2041 592,1861 274,1684 164,1622 60,1500 18,1382 -39,1222 48,1037 242,903 399,794 532,741 1080,566 1537,420 1738,371 2170,301 c 177,-29 298,-56 435,-95 331,-95 422,-107 960,-126 341,-12 469,-22 675,-52 228,-33 544,-25 870,21 147,21 375,37 680,46 270,8 479,23 583,41 48,8 183,42 300,75 156,45 282,72 477,105 439,74 603,115 1097,270 592,186 770,266 923,416 100,98 154,241 131,349 -21,99 -104,226 -192,296 -142,113 -552,251 -1029,347 -355,71 -501,90 -680,91 -152,0 -169,-2 -217,-24 -95,-42 -171,-156 -156,-233 12,-65 101,-98 268,-98 114,0 330,-35 501,-80 107,-28 270,-86 317,-112 21,-12 19,-13 -23,-19 -136,-22 -302,-5 -660,66 -381,76 -593,74 -755,-8 l -60,-30 45,-13 c 83,-25 245,-53 486,-84 352,-45 483,-72 601,-126 l 58,-27 -45,-9 c -76,-17 -276,-11 -470,13 -102,12 -243,23 -315,23 -151,1 -216,-15 -304,-71 l -56,-36 30,-9 c 17,-4 136,-26 265,-48 129,-23 253,-45 275,-51 64,-16 137,-41 133,-45 -2,-2 -31,-11 -63,-20 -47,-12 -135,-18 -395,-24 -260,-6 -346,-11 -383,-24 -50,-16 -107,-46 -107,-56 0,-4 23,-17 52,-31 46,-22 65,-24 182,-24 72,0 193,4 269,9 117,8 137,7 137,-6 0,-22 -38,-58 -79,-75 -22,-9 -88,-18 -168,-22 -222,-11 -163,-24 82,-18 375,10 634,45 990,133 407,101 743,253 968,438 44,35 48,42 43,70 -4,17 -20,53 -37,81 -17,27 -33,65 -37,83 l -5,34 29,-18 c 97,-60 144,-141 144,-249 0,-102 -14,-141 -70,-195 C 8753,1036 8475,929 8005,816 7175,618 6295,487 5356,425 5026,403 4342,389 4130,401 3114,456 2092,605 1195,829 764,936 478,1063 399,1180 c -46,69 -48,194 -3,284 27,53 107,126 139,126 14,0 1,-39 -35,-105 -51,-93 -51,-112 2,-156 311,-259 896,-465 1553,-545 117,-14 655,-31 630,-19 -5,2 -74,9 -151,14 -78,5 -153,15 -165,21 -38,20 -69,52 -69,72 0,22 9,22 240,4 113,-10 199,-12 242,-6 68,8 139,36 145,56 2,7 -16,22 -41,34 -80,38 -181,49 -463,50 -253,0 -400,13 -425,38 -18,18 186,65 457,107 95,14 184,31 214,41 37,12 -85,83 -177,103 -86,18 -257,13 -490,-15 -219,-26 -412,-29 -471,-7 -22,9 -19,11 36,35 126,55 250,80 623,128 248,32 411,62 464,84 l 31,14 -66,31 c -168,80 -357,79 -774,-3 -99,-20 -225,-43 -280,-51 -102,-15 -305,-18 -360,-6 l -30,7 40,18 c 211,93 476,155 834,195 158,18 265,26 666,49 l 120,7 -3,40 c -12,145 -95,234 -253,270 -68,15 -257,26 -339,19 z"
         id="path11078"
         style="fill:#ffffff;fill-opacity:1" /></g></g></svg>
