<?xml version="1.0" standalone="no"?>
<!DOCTYPE svg PUBLIC "-//W3C//DTD SVG 20010904//EN"
 "http://www.w3.org/TR/2001/REC-SVG-20010904/DTD/svg10.dtd">
<svg version="1.0" xmlns="http://www.w3.org/2000/svg"
 width="1089.000000pt" height="1280.000000pt" viewBox="0 0 1089.000000 1280.000000"
 preserveAspectRatio="xMidYMid meet">
<g transform="translate(0.000000,1280.000000) scale(0.100000,-0.100000)"
fill="#000000" stroke="none">
<path d="M5290 12789 c-30 -5 -101 -16 -157 -24 -230 -35 -406 -108 -514 -215
-100 -99 -102 -106 -91 -441 5 -151 8 -278 5 -284 -2 -7 -393 -9 -1156 -6
-1147 3 -1792 -5 -2642 -34 -514 -18 -645 -25 -667 -37 -36 -18 -40 -47 -49
-377 -4 -179 -11 -376 -15 -436 -7 -108 -6 -111 19 -141 16 -18 53 -41 96 -59
39 -15 71 -34 71 -41 0 -7 -13 -23 -29 -36 -49 -40 -71 -81 -102 -189 -50
-170 -58 -224 -42 -299 8 -35 27 -88 44 -118 l30 -53 -20 -63 c-30 -97 -43
-212 -31 -274 21 -113 71 -168 178 -198 66 -18 67 -34 1 -34 -21 0 -47 -8 -61
-20 l-25 -19 -6 -253 c-4 -182 -12 -292 -27 -392 -27 -178 -26 -180 106 -213
208 -52 481 -86 613 -76 105 7 122 -7 38 -32 -185 -55 -416 -100 -667 -130
-139 -17 -171 -29 -185 -75 -7 -22 32 -108 120 -265 41 -72 88 -166 107 -210
31 -77 32 -86 33 -215 0 -134 -12 -406 -21 -446 -3 -18 -13 -22 -56 -26 -91
-9 -93 -15 -104 -394 l-6 -221 25 -29 c25 -28 27 -29 150 -34 116 -5 149 -11
135 -26 -3 -3 -64 -19 -134 -35 -71 -17 -140 -38 -154 -48 -33 -24 -36 -46
-50 -376 -14 -337 -38 -791 -46 -860 -6 -47 -4 -53 25 -84 l32 -34 502 7 c276
3 1325 18 2331 31 1006 14 1833 22 1838 17 4 -4 39 -1069 78 -2365 52 -1744
73 -2362 82 -2377 7 -11 19 -23 28 -26 8 -4 281 -49 605 -101 325 -51 601 -96
615 -99 29 -6 77 33 84 69 3 12 17 1125 32 2472 15 1348 31 2455 36 2461 9 13
62 16 778 44 272 11 603 24 735 30 132 5 413 17 625 25 212 8 491 20 620 25
129 6 460 19 735 30 842 34 1009 42 1027 51 10 5 22 17 27 27 11 20 27 1255
17 1295 -4 19 -46 51 -176 134 -97 62 -170 114 -170 123 0 8 79 73 175 144
113 83 177 136 179 150 3 11 7 62 10 111 3 50 8 119 12 155 5 59 3 68 -19 95
-23 28 -31 30 -109 35 l-83 5 -3 115 c-4 129 14 604 28 780 6 63 20 202 31
308 l22 194 -20 26 c-16 22 -38 31 -112 48 -51 12 -95 25 -98 28 -13 13 15 26
117 57 58 17 113 38 122 47 10 10 36 93 62 202 26 102 51 193 56 202 15 26 12
40 -14 73 -21 26 -32 31 -88 35 l-63 5 -7 45 c-4 25 -10 126 -14 225 -5 146
-10 187 -25 217 -11 21 -19 42 -19 48 0 5 17 26 39 45 21 19 48 58 60 86 21
48 22 62 19 289 -3 276 -2 272 -97 290 -91 18 -161 40 -161 50 0 6 38 10 89
10 82 0 91 2 108 24 11 13 52 138 93 277 40 140 78 262 84 271 7 12 6 24 -4
43 -30 56 -12 55 -737 55 -960 0 -1625 22 -3043 100 -688 38 -723 41 -733 54
-4 6 -5 153 -1 327 8 364 5 382 -72 468 -111 123 -312 206 -598 247 -137 19
-332 26 -406 13z"/>
</g>
</svg>
